<svg width="387" height="421" viewBox="0 0 387 421" fill="none" xmlns="http://www.w3.org/2000/svg">
<g filter="url(#filter0_d)">
<path d="M129.289 347.726C128.413 352.666 123.57 361.124 135.957 359.16C156.568 356.645 176.156 350.676 194.465 340.394C264.005 301.338 283.368 209.412 275.854 139.11C274.49 126.393 271.701 113.799 274.766 101.248C277.068 91.8075 276.23 88.3913 265.402 91.5366C255.089 94.5338 245.12 93.213 234.808 88.2177C214.331 78.2992 192.771 78.3034 172.265 88.3532C168.604 90.1481 165.014 91.3376 161.424 92.0192C154.608 93.3104 143.911 91.6721 142.874 91.5493C140.317 91.2445 139.081 91.0075 137.51 91.6678C133.467 93.3696 132.126 98.9364 131.486 102.535C128.841 117.389 132.447 130.618 132.536 148.737C132.6 161.449 133.912 180.258 129.37 183.242L103.547 211.817L109.897 225.363C129.488 267.565 137.273 302.565 129.289 347.726Z" fill="#7E2E96"/>
<path d="M214.955 166.41C194.669 166.719 174.553 162.448 154.216 164.163C151.604 164.383 149.149 164.51 147.147 161.961C141.91 155.307 142.092 130.868 148.023 123.824C157.137 113.008 167.534 115.886 177.626 122.088C186.876 127.769 195.698 138.602 204.825 138.725C213.325 138.843 221.627 127.248 230.669 121.915C238.53 117.275 247.496 112.297 256.505 119.082C265.429 125.809 264.946 136.164 263.608 145.731C262.182 155.937 254.862 161.292 245.16 164.057C235.19 166.902 225.06 166.224 214.955 166.41Z" fill="#FDFDFD"/>
<path fill-rule="evenodd" clip-rule="evenodd" d="M241.904 83.8745C229.234 86.7616 214.621 90.1228 203.864 99.0169C193.107 90.1228 178.494 86.7616 165.824 83.8745C146.038 79.366 132.347 72.8299 128.423 53.2806C121.104 84.2216 135.679 102.818 158.682 113.998C178.202 123.485 195.673 131.685 203.864 161.775C212.055 131.689 229.526 123.489 249.046 113.998C272.054 102.818 286.625 84.2216 279.305 53.2806C275.385 72.8299 261.691 79.366 241.904 83.8745Z" fill="url(#paint0_linear)"/>
<path fill-rule="evenodd" clip-rule="evenodd" d="M231.07 134.674C225.842 138.166 221.913 142.137 218.891 146.755C234.384 153.461 246.326 141.633 245.704 126.749C240.73 129.166 235.671 131.604 231.07 134.674Z" fill="url(#paint1_linear)"/>
<path opacity="0.4" fill-rule="evenodd" clip-rule="evenodd" d="M231.07 134.674C225.842 138.166 221.913 142.137 218.891 146.755C219.2 146.891 219.504 147.014 219.809 147.132C222.358 143.974 230.617 135.228 245.014 133.844C245.56 131.613 245.806 129.226 245.704 126.753C240.73 129.166 235.671 131.605 231.07 134.674Z" fill="#7E2E96"/>
<path fill-rule="evenodd" clip-rule="evenodd" d="M179.313 134.331C175.156 131.554 170.588 129.357 166.092 127.172C165.529 140.617 176.316 151.298 190.311 145.244C187.58 141.07 184.033 137.485 179.313 134.331Z" fill="url(#paint2_linear)"/>
<path opacity="0.4" fill-rule="evenodd" clip-rule="evenodd" d="M179.313 134.331C175.156 131.554 170.588 129.357 166.092 127.172C165.999 129.408 166.219 131.562 166.714 133.577C179.719 134.83 187.182 142.726 189.481 145.583C189.756 145.477 190.031 145.363 190.311 145.244C187.58 141.07 184.033 137.485 179.313 134.331Z" fill="#7E2E96"/>
<path d="M129.288 347.725C128.412 352.665 123.569 361.123 135.955 359.159C156.567 356.645 176.603 350.676 194.912 340.393C280.007 288.655 285.042 191.35 276.923 149.164C271.208 177.104 203.874 175.622 164.716 177.739C133.39 179.432 117.656 185.076 113.705 187.687C94.571 197.169 103.193 216.755 109.895 225.363C129.487 267.564 137.272 302.565 129.288 347.725Z" fill="url(#paint3_linear)"/>
<path opacity="0.8" fill-rule="evenodd" clip-rule="evenodd" d="M252.394 97.7088C235.571 105.206 217.406 110.032 203.75 123.244C190.093 110.032 171.928 105.21 155.101 97.7088C137.385 89.8138 126.124 75.0269 128.309 53.2806C120.989 84.2216 135.565 102.818 158.568 113.998C178.088 123.485 195.558 131.685 203.75 161.775C211.941 131.689 229.412 123.489 248.932 113.998C271.939 102.818 286.51 84.2216 279.191 53.2806C281.375 75.0269 270.115 89.8138 252.394 97.7088Z" fill="url(#paint4_linear)"/>
<mask id="mask0" style="mask-type:alpha" maskUnits="userSpaceOnUse" x="102" y="80" width="178" height="280">
<path d="M129.288 347.725C128.412 352.665 123.569 361.124 135.955 359.159C156.567 356.645 176.154 350.676 194.463 340.393C279.559 288.655 284.594 191.35 276.475 149.164C270.76 177.104 203.874 175.622 164.716 177.739C133.39 179.432 117.656 185.076 113.705 187.687C94.571 197.169 103.193 216.755 109.895 225.363C129.487 267.564 137.272 302.565 129.288 347.725Z" fill="url(#paint5_linear)"/>
</mask>
<g mask="url(#mask0)">
<path d="M128.887 321.141L155.188 309.438L168.942 314.57L191.199 304.667L193.004 308.724L168.895 319.452L155.256 314.043L131.147 324.771C130.212 323.633 129.461 322.427 128.887 321.141Z" fill="#7E2E96" fill-opacity="0.2"/>
<path d="M120.77 302.894C120.29 301.339 119.901 299.973 119.707 298.52L146.366 286.66L151.58 273.076L175.669 262.362L177.389 266.233L154.951 276.213L149.835 289.968L120.77 302.894Z" fill="#7E2E96" fill-opacity="0.2"/>
<path d="M124.315 312.355C124.07 311.805 123.661 310.879 123.51 310.061L165.64 291.321L167.444 295.379L125.314 314.119C124.886 313.648 124.64 313.094 124.315 312.355Z" fill="#7E2E96" fill-opacity="0.2"/>
<path d="M116.803 286.565C116.344 285.002 116.133 283.555 116.109 282.014L140.938 270.969L146.438 257.056L147.255 254.923L151.229 256.455L150.411 258.588L144.594 274.203L116.803 286.565Z" fill="#7E2E96" fill-opacity="0.2"/>
<path d="M175.923 266.882C177.973 269.507 181.559 270.119 184.684 268.732C188.727 266.933 190.639 262.331 188.835 258.273C187.031 254.215 182.253 252.377 178.21 254.176C174.707 255.734 172.905 259.62 173.665 263.256L174.318 264.732C174.648 265.469 175.053 266.386 175.923 266.882ZM179.68 257.484C182.072 256.419 184.723 257.449 185.706 259.662C186.689 261.874 185.681 264.535 183.287 265.595C181.078 266.577 178.423 265.548 177.44 263.336C176.457 261.123 177.471 258.465 179.68 257.484Z" fill="#7E2E96" fill-opacity="0.2"/>
<path d="M166.525 295.786C168.651 298.591 172.405 299.573 175.712 298.103C179.934 296.223 181.583 291.515 179.782 287.465C177.978 283.408 173.375 281.48 169.152 283.355C165.845 284.825 164.063 288.272 164.72 291.728C164.687 292.625 164.939 293.181 165.264 293.92C165.593 294.657 165.838 295.207 166.525 295.786ZM170.63 286.67C173.022 285.606 175.673 286.636 176.657 288.853C177.637 291.057 176.709 293.906 174.32 294.964C172.111 295.946 169.375 294.729 168.396 292.525C167.409 290.314 168.418 287.658 170.63 286.67Z" fill="#7E2E96" fill-opacity="0.2"/>
<path d="M190.796 309.706C193.008 312.688 197 313.79 200.507 312.231C204.55 310.432 206.395 305.636 204.591 301.578C202.871 297.707 198.072 295.877 194.034 297.674C190.906 299.068 189.042 302.321 189.349 305.49C189.318 306.391 189.533 307.395 189.857 308.133C190.105 308.692 190.55 309.152 190.796 309.706ZM195.424 300.808C197.633 299.827 200.561 300.947 201.464 302.971C202.533 305.375 201.32 308.112 199.111 309.094C196.897 310.077 194.25 309.056 193.182 306.656C192.278 304.628 193.215 301.79 195.424 300.808Z" fill="#7E2E96" fill-opacity="0.2"/>
<path d="M146.438 257.056C147.483 257.904 149.076 258.533 150.411 258.588C151.773 258.647 153.031 258.521 154.324 257.945C158.367 256.146 160.02 251.447 158.219 247.397C156.418 243.348 151.812 241.412 147.773 243.209C143.73 245.007 141.889 249.812 143.69 253.862C144.263 255.159 145.206 256.268 146.438 257.056ZM149.252 246.538C151.461 245.557 154.109 246.578 155.096 248.789C156.16 251.18 155.061 253.651 152.854 254.637C150.462 255.701 147.896 254.858 146.832 252.467C145.847 250.251 146.859 247.599 149.252 246.538Z" fill="#7E2E96" fill-opacity="0.2"/>
</g>
</g>
<defs>
<filter id="filter0_d" x="98.0303" y="53.2806" width="187.179" height="314.17" filterUnits="userSpaceOnUse" color-interpolation-filters="sRGB">
<feFlood flood-opacity="0" result="BackgroundImageFix"/>
<feColorMatrix in="SourceAlpha" type="matrix" values="0 0 0 0 0 0 0 0 0 0 0 0 0 0 0 0 0 0 127 0" result="hardAlpha"/>
<feOffset dy="4"/>
<feGaussianBlur stdDeviation="2"/>
<feComposite in2="hardAlpha" operator="out"/>
<feColorMatrix type="matrix" values="0 0 0 0 0 0 0 0 0 0 0 0 0 0 0 0 0 0 0.25 0"/>
<feBlend mode="normal" in2="BackgroundImageFix" result="effect1_dropShadow"/>
<feBlend mode="normal" in="SourceGraphic" in2="effect1_dropShadow" result="shape"/>
</filter>
<linearGradient id="paint0_linear" x1="205.871" y1="195.46" x2="203.63" y2="53.6898" gradientUnits="userSpaceOnUse">
<stop stop-color="#653867"/>
<stop offset="1" stop-color="#C835F8"/>
</linearGradient>
<linearGradient id="paint1_linear" x1="232.309" y1="126.749" x2="232.309" y2="148.679" gradientUnits="userSpaceOnUse">
<stop stop-color="#7E2E96"/>
<stop offset="0.779167" stop-color="#3C104A"/>
<stop offset="0.982292" stop-color="#303030"/>
</linearGradient>
<linearGradient id="paint2_linear" x1="178.191" y1="127.172" x2="178.191" y2="146.98" gradientUnits="userSpaceOnUse">
<stop stop-color="#7E2E96"/>
<stop offset="0.779167" stop-color="#3C104A"/>
<stop offset="0.982292" stop-color="#303030"/>
</linearGradient>
<linearGradient id="paint3_linear" x1="190.632" y1="80.7966" x2="190.632" y2="359.45" gradientUnits="userSpaceOnUse">
<stop stop-color="#7E2E96"/>
<stop offset="0.779167" stop-color="#3C104A"/>
<stop offset="0.982292" stop-color="#303030"/>
</linearGradient>
<linearGradient id="paint4_linear" x1="203.75" y1="53.2806" x2="203.75" y2="161.775" gradientUnits="userSpaceOnUse">
<stop offset="0.326042" stop-color="#7E2E96"/>
<stop offset="0.716667" stop-color="#3C104A"/>
</linearGradient>
<linearGradient id="paint5_linear" x1="190.632" y1="80.7968" x2="190.632" y2="359.45" gradientUnits="userSpaceOnUse">
<stop stop-color="#7E2E96"/>
<stop offset="0.779167" stop-color="#3C104A"/>
<stop offset="0.982292" stop-color="#303030"/>
</linearGradient>
</defs>
</svg>
